<svg xmlns="http://www.w3.org/2000/svg" width="16" height="16" viewBox="0 0 16 16">
  <defs>
    <style>.a{fill:#424242;}</style>
  </defs>
  <path class="a"
        d="M2.1,0a3,3,0,0,0-3,3A2.977,2.977,0,0,0-.427,4.606L4.133.806A2.879,2.879,0,0,0,2.1,0Zm10,0a2.981,2.981,0,0,0-2.033.806l4.559,3.8A2.765,2.765,0,0,0,15.1,3,2.983,2.983,0,0,0,12.1,0ZM7.128,2A7,7,0,0,0,1.679,13.387L.348,14.718A.75.75,0,1,0,1.408,15.78l1.331-1.331a6.984,6.984,0,0,0,8.776,0l1.331,1.331a.75.75,0,1,0,1.062-1.061l-1.331-1.331A7,7,0,0,0,7.128,2Zm0,12.5a5.5,5.5,0,1,1,5.5-5.5A5.506,5.506,0,0,1,7.128,14.5Zm.75-5.375V5.75a.75.75,0,0,0-1.5,0V9.5a.75.75,0,0,0,.3.6l2,1.5a.676.676,0,0,0,.422.15A.75.75,0,0,0,9.551,10.4Z"
        transform="translate(0.9)"/>
</svg>
