<svg xmlns="http://www.w3.org/2000/svg" width="21" height="24" viewBox="0 0 21 24"><defs><style>.a{fill:#757575;}</style></defs><path class="a" d="M18,3H16.125V1.125A1.117,1.117,0,0,0,15.042,0a1.191,1.191,0,0,0-1.167,1.125V3H7.125V1.125a1.125,1.125,0,0,0-2.25,0V3H3A3,3,0,0,0,0,6V21a3,3,0,0,0,3,3H18a3,3,0,0,0,3-3V6A3,3,0,0,0,18,3Zm.75,18a.751.751,0,0,1-.75.75H3A.751.751,0,0,1,2.25,21V9h16.5ZM5.25,18h4.5a.755.755,0,0,0,.75-.75v-4.5A.755.755,0,0,0,9.75,12H5.25a.758.758,0,0,0-.75.75v4.5A.755.755,0,0,0,5.25,18Z"/></svg>