<svg xmlns="http://www.w3.org/2000/svg" width="40" height="40" viewBox="0 0 40 40"><defs><style>.a,.b{fill:#5063ff;}.a{opacity:0.12;}</style></defs><g transform="translate(-1316 -132)"><rect class="a" width="40" height="40" rx="20" transform="translate(1316 132)"/><path class="b" d="M19.063,47.625H1.875V32.938a.938.938,0,0,0-1.875,0V48.25A1.254,1.254,0,0,0,1.25,49.5H19.063a.938.938,0,0,0,0-1.875ZM6.563,44.5a.935.935,0,0,0,.938-.937V41.688a.938.938,0,0,0-1.875,0v1.875A.938.938,0,0,0,6.563,44.5Zm3.75,0a.938.938,0,0,0,.938-.937V36.688a.938.938,0,0,0-1.875,0v6.875A.938.938,0,0,0,10.313,44.5Zm3.75,0A.938.938,0,0,0,15,43.563V39.188a.938.938,0,0,0-1.875,0v4.375A.938.938,0,0,0,14.063,44.5Zm3.75,0a.938.938,0,0,0,.938-.937V35.438a.938.938,0,0,0-1.875,0v8.125A.938.938,0,0,0,17.813,44.5Z" transform="translate(1326 111)"/></g></svg>