<svg xmlns="http://www.w3.org/2000/svg" width="40" height="40" viewBox="0 0 40 40"><defs><style>.a,.b{fill:#26264e;}.a{opacity:0.04;}</style></defs><g transform="translate(-1316 -132)"><rect class="a" width="40" height="40" rx="20" transform="translate(1316 132)"/><path class="b" d="M16,5a2.5,2.5,0,1,0-2.5-2.5A2.5,2.5,0,0,0,16,5Zm3.5,6.875H18.125V10.5a.5.5,0,0,0-.5-.5h-1.25a.5.5,0,0,0-.5.5v1.375H14.5a.5.5,0,0,0-.5.5v1.25a.5.5,0,0,0,.5.5h1.375V15.5a.5.5,0,0,0,.5.5h1.25a.5.5,0,0,0,.5-.5V14.125H19.5a.5.5,0,0,0,.5-.5v-1.25A.5.5,0,0,0,19.5,11.875ZM15.316,6a2.606,2.606,0,0,0-1.121.258,4.578,4.578,0,0,1,.049.492A4.213,4.213,0,0,1,13.207,9.5H15.2A1.364,1.364,0,0,1,16.25,9h1.5a1.366,1.366,0,0,1,1.052.5h.648A.569.569,0,0,0,20,8.916,2.838,2.838,0,0,0,17.247,6ZM10,10A3.25,3.25,0,1,0,6.775,6.75,3.227,3.227,0,0,0,10,10Zm0-5a1.75,1.75,0,1,1-1.75,1.75A1.751,1.751,0,0,1,10,5Zm4.878,10.125h-.5a1.373,1.373,0,0,1-1.15-.625H5.566a2.909,2.909,0,0,1,2.848-2h3.146A3.154,3.154,0,0,1,13,12.845v-.6a1.421,1.421,0,0,1,.34-.9A4.644,4.644,0,0,0,11.559,11H8.441A4.31,4.31,0,0,0,4,15.166.861.861,0,0,0,4.887,16H14.934a1.345,1.345,0,0,1-.059-.375ZM5.747,6.75a4.163,4.163,0,0,1,.05-.5A2.263,2.263,0,0,0,4.684,6H2.753A2.838,2.838,0,0,0,0,8.916.569.569,0,0,0,.551,9.5H6.785A4.209,4.209,0,0,1,5.747,6.75ZM4,5A2.5,2.5,0,1,0,1.5,2.5,2.5,2.5,0,0,0,4,5Z" transform="translate(1326 144)"/></g></svg>