<svg xmlns="http://www.w3.org/2000/svg" width="40" height="40" viewBox="0 0 40 40"><defs><style>.a,.b{fill:#26264e;}.a{opacity:0.04;}</style></defs><g transform="translate(-1316 -132)"><rect class="a" width="40" height="40" rx="20" transform="translate(1316 132)"/><path class="b" d="M7,0A7,7,0,0,0,0,7c0,2.822.983,3.61,6.282,11.291a.875.875,0,0,0,1.437,0C13.016,10.609,14,9.822,14,7A7,7,0,0,0,7,0ZM7,16.253c-.645-.928-1.218-1.745-1.727-2.47C2.1,9.264,1.75,8.71,1.75,7a5.25,5.25,0,0,1,10.5,0c0,1.709-.349,2.263-3.523,6.785C8.218,14.478,7.645,15.327,7,16.253Zm0-12.2A2.917,2.917,0,1,0,9.917,6.967,2.917,2.917,0,0,0,7,4.051ZM7,8.167A1.167,1.167,0,1,1,8.167,7,1.17,1.17,0,0,1,7,8.167Z" transform="translate(1329 143)"/></g></svg>