<svg xmlns="http://www.w3.org/2000/svg" width="40" height="40" viewBox="0 0 40 40"><defs><style>.a,.b{fill:#26264e;}.a{opacity:0.04;}</style></defs><g transform="translate(-1316 -132)"><rect class="a" width="40" height="40" rx="20" transform="translate(1316 132)"/><path class="b" d="M7.148,15.941a.939.939,0,0,0,.663.275h.035a.937.937,0,0,0,.676-.326l3.75-4.375a.937.937,0,0,0-1.423-1.221L7.759,13.9,6.6,12.741a.937.937,0,0,0-1.326,1.326ZM15,2.5H13.438V.938a.938.938,0,1,0-1.875,0V2.5H5.938V.938a.938.938,0,0,0-1.875,0V2.5H2.5A2.5,2.5,0,0,0,0,5V17.5A2.5,2.5,0,0,0,2.5,20H15a2.5,2.5,0,0,0,2.5-2.5V5A2.5,2.5,0,0,0,15,2.5Zm.625,15a.626.626,0,0,1-.625.625H2.5a.626.626,0,0,1-.625-.625V7.5h13.75Z" transform="translate(1327 142)"/></g></svg>