<svg xmlns="http://www.w3.org/2000/svg" width="32" height="32" viewBox="0 0 32 32"><defs><style>.a{fill:#fff;stroke:#dbdbdb;}.b{fill:#141432;}.c{stroke:none;}.d{fill:none;}</style></defs><g transform="translate(-1136 -350)"><g class="a" transform="translate(1136 350)"><rect class="c" width="32" height="32" rx="6"/><rect class="d" x="0.5" y="0.5" width="31" height="31" rx="5.5"/></g><path class="b" d="M11.674,105.6A.9.9,0,1,1,10.4,106.87l-4.419-4.452-4.451,4.451A.9.9,0,0,1,.264,105.6l4.452-4.449L.263,96.665A.9.9,0,0,1,1.533,95.4l4.452,4.486,4.451-4.451A.9.9,0,1,1,11.7,96.7L7.253,101.15Z" transform="translate(1146.021 264.867)"/></g></svg>