<svg xmlns="http://www.w3.org/2000/svg" width="40" height="40" viewBox="0 0 40 40"><defs><style>.a,.b{fill:#26264e;}.a{opacity:0.04;}</style></defs><g transform="translate(-1316 -132)"><rect class="a" width="40" height="40" rx="20" transform="translate(1316 132)"/><path class="b" d="M14.27,3.648,11.354.732A2.512,2.512,0,0,0,9.586,0H2.5A2.5,2.5,0,0,0,0,2.5v15A2.5,2.5,0,0,0,2.5,20h10A2.507,2.507,0,0,0,15,17.5V5.414A2.5,2.5,0,0,0,14.27,3.648ZM13.125,17.5a.625.625,0,0,1-.625.625H2.5a.625.625,0,0,1-.625-.625V2.5A.625.625,0,0,1,2.5,1.88H8.75V5A1.25,1.25,0,0,0,10,6.25h3.09V17.5ZM3.75,10.937a.938.938,0,0,0,.938.938h5.625a.937.937,0,1,0,0-1.875H4.688A.94.94,0,0,0,3.75,10.937Zm6.563,2.813H4.688a.938.938,0,0,0,0,1.875h5.625a.938.938,0,0,0,0-1.875Z" transform="translate(1328.5 142)"/></g></svg>