<svg xmlns="http://www.w3.org/2000/svg" width="40" height="40" viewBox="0 0 40 40"><defs><style>.a,.b{fill:#26264e;}.a{opacity:0.04;}</style></defs><g transform="translate(-1531 -129)"><rect class="a" width="40" height="40" rx="20" transform="translate(1531 129)"/><path class="b" d="M12.5,2.5H10.562a3.126,3.126,0,0,0-6.125,0H2.5A2.5,2.5,0,0,0,0,5V17.5A2.5,2.5,0,0,0,2.5,20h10A2.5,2.5,0,0,0,15,17.5V5A2.5,2.5,0,0,0,12.5,2.5Zm-5-.625a.938.938,0,1,1-.937.938A.939.939,0,0,1,7.5,1.875ZM13.125,17.5a.626.626,0,0,1-.625.625H2.5a.626.626,0,0,1-.625-.625V5A.626.626,0,0,1,2.5,4.375h.713A2.461,2.461,0,0,0,3.125,5v.625a.626.626,0,0,0,.625.625h7.5a.625.625,0,0,0,.625-.625V5a2.477,2.477,0,0,0-.088-.625H12.5A.626.626,0,0,1,13.125,5ZM11.25,10H6.875a.625.625,0,0,0,0,1.25H11.25a.625.625,0,0,0,0-1.25Zm0,3.75H6.875a.625.625,0,0,0,0,1.25H11.25a.625.625,0,0,0,0-1.25Zm-7.187-.312A.938.938,0,1,0,5,14.375.938.938,0,0,0,4.063,13.438Zm.156-2.187a.622.622,0,0,0,.442-.183L6.536,9.192a.625.625,0,0,0-.884-.884L4.219,9.742l-.5-.5a.625.625,0,0,0-.884.884l.938.938A.629.629,0,0,0,4.219,11.25Z" transform="translate(1543.5 138.167)"/></g></svg>