<svg xmlns="http://www.w3.org/2000/svg" width="24" height="22.243" viewBox="0 0 24 22.243"><defs><style>.a{fill:#fff;}</style></defs><g transform="translate(-271.981 -1191.342)"><path class="a" d="M295.981,1407.64c-.13,0-.259.008-.389.008H271.986a7.265,7.265,0,0,1,.376-2.586,6.4,6.4,0,0,1,3.764-3.893,14.235,14.235,0,0,1,3.57-.971.349.349,0,0,1,.434.226c.768,1.527,1.549,3.046,2.327,4.568.053.1.107.2.213.405.058-.454.1-.807.148-1.161.083-.655.157-1.312.254-1.965a.4.4,0,0,0-.179-.448c-.124-.083-.233-.19-.407-.335h2.9c0,.028,0,.061-.011.067a.943.943,0,0,0-.449,1.153c.148.8.209,1.613.309,2.421a1.253,1.253,0,0,0,.075.208c.133-.256.241-.463.347-.671.725-1.416,1.445-2.835,2.18-4.245a.432.432,0,0,1,.319-.218,11.077,11.077,0,0,1,5.351,1.951,6.171,6.171,0,0,1,2.4,4.329c.017.127.05.252.075.378Z" transform="translate(0 -194.063)"/><path class="a" d="M363.391,1191.342a4.933,4.933,0,0,1,5.193,4.211c.145.677.185,1.376.279,2.065.013.1.032.242.094.272.489.238.514.675.474,1.116a1.19,1.19,0,0,1-.719,1.123.437.437,0,0,0-.184.262,7.755,7.755,0,0,1-2.658,3.877,3.544,3.544,0,0,1-2.832.94,4.591,4.591,0,0,1-2.621-1.568,8.487,8.487,0,0,1-1.792-3.177c-.057-.18-.092-.336-.35-.363a.7.7,0,0,1-.4-.32,1.6,1.6,0,0,1-.18-1.516c.031-.086.085-.206.155-.229.421-.139.316-.479.325-.78a6.179,6.179,0,0,1,1.713-4.47A5.117,5.117,0,0,1,363.391,1191.342Z" transform="translate(-79.545)"/></g></svg>
