<svg xmlns="http://www.w3.org/2000/svg" width="40" height="40" viewBox="0 0 40 40"><defs><style>.a,.b{fill:#26264e;}.a{opacity:0.04;}</style></defs><g transform="translate(-1316 -132)"><rect class="a" width="40" height="40" rx="20" transform="translate(1316 132)"/><path class="b" d="M17.778,32H2.222A2.222,2.222,0,0,0,0,34.222V45.333a2.222,2.222,0,0,0,2.222,2.222H17.778A2.222,2.222,0,0,0,20,45.333V34.222A2.223,2.223,0,0,0,17.778,32ZM1.671,34.222a.556.556,0,0,1,.556-.556H17.775a.556.556,0,0,1,.556.556v1.111H1.671ZM18.33,45.333a.556.556,0,0,1-.556.556H2.227a.556.556,0,0,1-.556-.556l0-6.667H18.333ZM4.167,44.222H5.833a.834.834,0,0,0,0-1.667H4.167a.833.833,0,0,0,0,1.667Zm4.444,0H12.5a.833.833,0,0,0,0-1.667H8.611a.833.833,0,0,0,0,1.667Z" transform="translate(1326 112.222)"/></g></svg>