<svg xmlns="http://www.w3.org/2000/svg" width="40" height="40" viewBox="0 0 40 40"><defs><style>.a,.b{fill:#26264e;}.a{opacity:0.04;}</style></defs><g transform="translate(-1316 -132)"><rect class="a" width="40" height="40" rx="20" transform="translate(1316 132)"/><path class="b" d="M17.5,34.5H14.688l-.33-.879A2.5,2.5,0,0,0,12.016,32H7.984a2.5,2.5,0,0,0-2.34,1.619l-.332.881H2.5A2.5,2.5,0,0,0,0,37V47a2.5,2.5,0,0,0,2.5,2.5h15A2.5,2.5,0,0,0,20,47V37A2.5,2.5,0,0,0,17.5,34.5ZM18.125,47a.626.626,0,0,1-.625.625H2.5A.626.626,0,0,1,1.875,47V37a.626.626,0,0,1,.625-.625H6.609l.789-2.1a.63.63,0,0,1,.586-.4H12.02a.628.628,0,0,1,.585.405l.782,2.095H17.5a.626.626,0,0,1,.625.625ZM10,37.625A4.375,4.375,0,1,0,14.375,42,4.373,4.373,0,0,0,10,37.625ZM10,44.5A2.5,2.5,0,1,1,12.5,42,2.5,2.5,0,0,1,10,44.5Z" transform="translate(1326 110.833)"/></g></svg>