<svg xmlns="http://www.w3.org/2000/svg" width="40" height="40" viewBox="0 0 40 40"><defs><style>.a,.b{fill:#26264e;}.a{opacity:0.04;}</style></defs><g transform="translate(-1316 -132)"><rect class="a" width="40" height="40" rx="20" transform="translate(1316 132)"/><path class="b" d="M26,16A10,10,0,1,0,36,26,10,10,0,0,0,26,16Zm0,18a8,8,0,1,1,8-8A8.008,8.008,0,0,1,26,34Zm-1.233-9.975-1.733-2.779a.68.68,0,0,0-1-.154,6.319,6.319,0,0,0-2.317,4.133.68.68,0,0,0,.662.775h3.292A2.335,2.335,0,0,1,24.767,24.025ZM26,27.333A1.333,1.333,0,1,0,24.667,26,1.333,1.333,0,0,0,26,27.333Zm1.233.638A2.415,2.415,0,0,1,26,28.333a2.31,2.31,0,0,1-1.233-.36l-1.739,2.783a.678.678,0,0,0,.3.97,6.174,6.174,0,0,0,5.34,0,.677.677,0,0,0,.3-.97Zm2.742-6.879a.676.676,0,0,0-1,.157l-1.738,2.778A2.333,2.333,0,0,1,28.333,26h3.29a.678.678,0,0,0,.663-.773A6.327,6.327,0,0,0,29.975,21.092Z" transform="translate(1310 126)"/></g></svg>