<svg xmlns="http://www.w3.org/2000/svg" width="24" height="22.24" viewBox="0 0 24 22.24"><defs><style>.a{fill:#b9b7b7;}</style></defs><g transform="translate(-271.981 -802.617)"><path class="a" d="M358.7,816.112h-4.9a10.484,10.484,0,0,0,2.287-5.821,6.023,6.023,0,0,1-3.35-1.991,6.476,6.476,0,0,1-5.031,2.187,10.309,10.309,0,0,0,2.267,5.619h-4.881a.536.536,0,0,1-.03-.117c.021-2.241,0-4.484.081-6.723a7.632,7.632,0,0,1,1.244-3.968,5.818,5.818,0,0,1,4.242-2.581,7.869,7.869,0,0,1,4.005.381,5.893,5.893,0,0,1,3.586,3.973,11.5,11.5,0,0,1,.49,3.454c.01,1.782,0,3.564,0,5.345C358.711,815.939,358.7,816.01,358.7,816.112Z" transform="translate(-67.905)"/><path class="a" d="M280.112,1019.645l-2.027,1.981h1.672l-1.265,1.134,3.759,3.761h-10.27c.076-.581.111-1.166.233-1.731a5.933,5.933,0,0,1,4.016-4.381A11.453,11.453,0,0,1,280.112,1019.645Z" transform="translate(0 -201.666)"/><path class="a" d="M468.084,1019.645l2.027,1.981h-1.672l1.265,1.134-3.759,3.761h10.27c-.076-.581-.111-1.166-.233-1.731a5.933,5.933,0,0,0-4.016-4.381A11.453,11.453,0,0,0,468.084,1019.645Z" transform="translate(-180.234 -201.666)"/></g></svg>
