<svg xmlns="http://www.w3.org/2000/svg" width="32" height="32" viewBox="0 0 32 32"><defs><style>.a,.b{fill:#ffa726;}.b{opacity:0.24;}</style></defs><g transform="translate(0 -32)"><path class="a" d="M194.806,142.936a2.246,2.246,0,1,0,2.246,2.247A2.246,2.246,0,0,0,194.806,142.936Zm0-2.364a1.715,1.715,0,0,0,1.714-1.714v-9.143a1.714,1.714,0,0,0-3.429,0v9.143A1.715,1.715,0,0,0,194.806,140.571Z" transform="translate(-178.806 -89.143)"/><path class="b" d="M27.429,32H4.571A4.571,4.571,0,0,0,0,36.571V59.429A4.571,4.571,0,0,0,4.571,64H27.429A4.571,4.571,0,0,0,32,59.429V36.571A4.573,4.573,0,0,0,27.429,32ZM14.286,40.571a1.714,1.714,0,0,1,3.429,0v9.143a1.714,1.714,0,1,1-3.429,0ZM16,58.286a2.246,2.246,0,1,1,2.246-2.246A2.246,2.246,0,0,1,16,58.286Z"/></g></svg>