<svg xmlns="http://www.w3.org/2000/svg" width="36" height="36" viewBox="0 0 36 36"><defs><style>.a{fill:#f6f7ff;stroke:#5063ff;}.b{fill:#5063ff;}.c{stroke:none;}.d{fill:none;}</style></defs><g transform="translate(-146 -10)"><g class="a" transform="translate(146 10)"><rect class="c" width="36" height="36" rx="6"/><rect class="d" x="0.5" y="0.5" width="35" height="35" rx="5.5"/></g><path class="b" d="M32,56.01a.921.921,0,0,1-.923.923H24.923v6.154a.923.923,0,1,1-1.846,0V56.933H16.923a.923.923,0,0,1,0-1.846h6.154V48.933a.923.923,0,0,1,1.846,0v6.154h6.154A.923.923,0,0,1,32,56.01Z" transform="translate(140 -28.01)"/></g></svg>