<svg xmlns="http://www.w3.org/2000/svg" width="40" height="40" viewBox="0 0 40 40"><defs><style>.a,.b{fill:#5063ff;}.a{opacity:0.12;}</style></defs><g transform="translate(-1531 -129)"><rect class="a" width="40" height="40" rx="20" transform="translate(1531 129)"/><path class="b" d="M9.563,10.688H6.188A6.188,6.188,0,0,0,0,16.875,1.125,1.125,0,0,0,1.125,18h13.5a1.125,1.125,0,0,0,1.125-1.125A6.188,6.188,0,0,0,9.563,10.688Zm-7.84,5.625a4.5,4.5,0,0,1,4.465-3.937H9.563a4.507,4.507,0,0,1,4.465,3.938ZM7.875,9a4.5,4.5,0,1,0-4.5-4.5A4.5,4.5,0,0,0,7.875,9Zm0-7.312A2.813,2.813,0,1,1,5.063,4.5,2.816,2.816,0,0,1,7.875,1.688Z" transform="translate(1543.148 140)"/></g></svg>